<svg width="97" height="90" viewBox="0 0 97 90" fill="none" xmlns="http://www.w3.org/2000/svg">
<g id="Character">
<g id="Group 454">
<g id="Group 436">
<path id="Vector 9" d="M51.9062 57.4839V88.3289" stroke="black"/>
<path id="Ellipse 199" d="M54.661 88.6793C54.661 89.2601 53.4274 89.0299 51.9057 89.0299C50.384 89.0299 49.1504 89.2601 49.1504 88.6793C49.1504 88.0986 50.384 87.6278 51.9057 87.6278C53.4274 87.6278 54.661 88.0986 54.661 88.6793Z" fill="black"/>
</g>
<g id="Group 435">
<path id="Vector 8" d="M39.8516 56.7829V87.6279" stroke="black"/>
<path id="Ellipse 198" d="M42.2626 88.3289C42.2626 88.9097 41.029 88.6794 39.5073 88.6794C37.9855 88.6794 36.752 88.9097 36.752 88.3289C36.752 87.7482 37.9855 87.2774 39.5073 87.2774C41.029 87.2774 42.2626 87.7482 42.2626 88.3289Z" fill="black"/>
</g>
<g id="Group 433">
<path id="Union" fill-rule="evenodd" clip-rule="evenodd" d="M41.7235 9.69182C42.3512 9.28242 42.8905 8.7542 43.031 8.10632C43.0423 8.05432 43.0536 8.00364 43.0646 7.95408C43.1782 7.44529 43.2653 7.05475 43.0166 6.57018C42.7313 6.01408 42.268 5.88244 41.6992 5.72083C41.6337 5.70222 41.5668 5.6832 41.4986 5.6631C40.9752 5.50879 40.4245 5.49552 39.9062 5.48304C38.9255 5.45941 38.0604 5.43856 37.7136 4.4707C37.0957 2.74635 39.3419 1.72618 41.0206 0.963745C41.0649 0.943643 41.1088 0.92372 41.1522 0.903969C44.0044 -0.393844 47.2538 -0.271558 50.0606 1.12501C50.1317 1.16036 50.2033 1.19577 50.2752 1.23134C51.7613 1.96641 53.3745 2.76436 52.8078 4.32462C52.4582 5.28702 51.5739 5.36228 50.5961 5.4455C50.2356 5.47618 49.8623 5.50795 49.4985 5.58567C49.373 5.61248 49.2453 5.63496 49.1178 5.65739C48.4798 5.76962 47.8487 5.88067 47.5449 6.52635C47.3211 7.00196 47.4053 7.37532 47.5138 7.85687C47.5287 7.92318 47.5441 7.99154 47.5592 8.0625C47.6808 8.63295 48.1025 9.22057 48.5263 9.69182H71.2965C71.8488 9.69182 72.2965 10.1395 72.2965 10.6918V57.1848C72.2965 57.7371 71.8488 58.1848 71.2965 58.1848H21.2227C20.6704 58.1848 20.2227 57.7371 20.2227 57.1848V37.665C20.2227 37.4459 20.2939 37.2327 20.4369 37.0667C20.8329 36.6072 21.7152 35.6843 22.5496 35.5077C22.6123 35.4944 22.6728 35.4809 22.7315 35.4677L22.7329 35.4674L22.7332 35.4673C23.1631 35.3709 23.4965 35.2961 23.9183 35.5077C24.491 35.795 24.5845 36.3811 24.679 36.9736C24.6978 37.092 24.7168 37.2106 24.7396 37.3272C24.8057 37.6652 24.8308 38.0115 24.855 38.3461C24.9207 39.2534 24.9801 40.0739 25.8346 40.4064C27.2198 40.9453 27.9447 39.4565 28.6124 38.085C28.6447 38.0187 28.6769 37.9526 28.709 37.887C29.9775 35.2967 30.1144 32.285 28.9827 29.6293L28.9306 29.5068C28.2658 27.9437 27.3762 25.8523 25.8346 26.4102C24.9693 26.7233 24.9432 27.5253 24.9137 28.4343C24.8981 28.9148 24.8816 29.4253 24.7396 29.9092C24.7211 29.9723 24.7036 30.0341 24.6864 30.0946L24.6864 30.0948C24.5375 30.6207 24.4162 31.0491 23.9183 31.3089C23.4844 31.5352 23.1372 31.451 22.6849 31.3414L22.6847 31.3413C22.6407 31.3306 22.5957 31.3197 22.5496 31.3089C21.1542 30.9798 20.4047 28.4866 20.252 27.9229C20.2315 27.8468 20.2227 27.77 20.2227 27.6912V10.6918C20.2227 10.1395 20.6704 9.69182 21.2227 9.69182H41.7235ZM44.9283 58.1422C44.2801 58.1435 43.8435 56.3383 43.9855 55.7058C43.9964 55.6574 44.0073 55.6101 44.018 55.5639C44.1275 55.0897 44.2115 54.7258 43.9827 54.2716C43.7202 53.7504 43.2886 53.6241 42.7587 53.4692C42.7232 53.4588 42.6872 53.4483 42.6508 53.4375C42.6247 53.4298 42.5984 53.4219 42.5718 53.4138C42.0842 53.266 41.5702 53.2497 41.0863 53.2343C40.1709 53.2052 39.3634 53.1796 39.0463 52.2735C38.4814 50.6592 40.5855 49.7229 42.1581 49.0231L42.2813 48.9682C44.9531 47.777 47.9859 47.9145 50.5967 49.2385C50.6628 49.272 50.7294 49.3056 50.7963 49.3393C52.1786 50.0362 53.6792 50.7927 53.1393 52.2453C52.8063 53.1413 51.9802 53.2052 51.0667 53.2759C50.7299 53.302 50.3813 53.329 50.041 53.3989C49.9237 53.423 49.8043 53.4431 49.6851 53.4631C49.0887 53.5633 48.4987 53.6625 48.2106 54.2631C47.9984 54.7055 48.0744 55.0547 48.1724 55.5051C48.1859 55.5671 48.1998 55.631 48.2134 55.6974C48.2515 55.8829 48.3235 56.0706 48.4177 56.2552C48.7933 56.9914 48.3737 58.1353 47.5472 58.1369L44.9283 58.1422Z" fill="#47B749"/>
<ellipse id="Ellipse 193" cx="41.7816" cy="24.3666" rx="1.53158" ry="4.50292" fill="black"/>
<path id="Ellipse 195" d="M43.0663 18.1597C43.1965 18.6017 42.0431 18.4612 40.7809 18.833C39.5187 19.2048 38.6258 19.9483 38.4955 19.5062C38.3653 19.0642 39.283 18.4045 40.5451 18.0327C41.8073 17.6608 42.936 17.7177 43.0663 18.1597Z" fill="black"/>
<path id="Ellipse 196" d="M54.9902 18.2531C55.103 18.6999 53.956 18.5142 52.6802 18.8363C51.4045 19.1584 50.4831 19.8663 50.3703 19.4195C50.2575 18.9728 51.2002 18.3495 52.476 18.0274C53.7518 17.7053 54.8774 17.8063 54.9902 18.2531Z" fill="black"/>
<ellipse id="Ellipse 194" cx="52.7581" cy="24.3666" rx="1.53158" ry="4.50292" fill="black"/>
</g>
<path id="Vector 11" d="M46.6516 36.6179C41.0412 35.4681 39.3406 34.5743 39.3406 34.5743C39.3406 34.5743 43.1827 41.6797 48.7932 42.8296C52.68 43.6261 57.7894 35.7611 57.7894 35.7611C57.7894 35.7611 50.2935 37.3643 46.6516 36.6179Z" fill="black"/>
</g>
<g id="arm">
<path id="Vector 13" d="M23.199 38.9833C23.199 38.9833 18.6055 47.981 17.0081 54.1911C14.8056 62.754 15.2942 76.6815 15.2942 76.6815" stroke="black"/>
<line id="Line 73" x1="15.3297" y1="76.4197" x2="14.4729" y2="77.7048" stroke="black" stroke-width="0.6"/>
<line id="Line 75" x1="15.3259" y1="76.0813" x2="16.2113" y2="77.3469" stroke="black" stroke-width="0.6"/>
<line id="Line 74" x1="15.5004" y1="76.2529" x2="15.4904" y2="78.0704" stroke="black" stroke-width="0.7"/>
</g>
<g id="arm_2">
<path id="Vector 12" d="M68.9998 40.5822L94.6468 55.6927" stroke="black"/>
<line id="Line 76" y1="-0.3" x2="1.20421" y2="-0.3" transform="matrix(0.525405 0.850852 -0.843688 0.536833 94.502 55.7937)" stroke="black" stroke-width="0.6"/>
<line id="Line 77" y1="-0.3" x2="1.16166" y2="-0.3" transform="matrix(0.983843 -0.179034 0.193405 0.981119 94.502 55.7937)" stroke="black" stroke-width="0.6"/>
<line id="Line 78" y1="-0.35" x2="1.39335" y2="-0.35" transform="matrix(0.901425 0.432936 -0.397846 0.917452 94.5215 55.7433)" stroke="black" stroke-width="0.7"/>
</g>
</g>
</svg>
