<svg width="33" height="33" viewBox="0 0 33 33" fill="none" xmlns="http://www.w3.org/2000/svg">
<g clip-path="url(#clip0_1154_1531)">
<path d="M16.5 30.9375C12.6709 30.9375 8.9987 29.4164 6.29115 26.7089C3.58359 24.0013 2.0625 20.3291 2.0625 16.5C2.0625 12.6709 3.58359 8.9987 6.29115 6.29115C8.9987 3.58359 12.6709 2.0625 16.5 2.0625C20.3291 2.0625 24.0013 3.58359 26.7089 6.29115C29.4164 8.9987 30.9375 12.6709 30.9375 16.5C30.9375 20.3291 29.4164 24.0013 26.7089 26.7089C24.0013 29.4164 20.3291 30.9375 16.5 30.9375ZM16.5 33C20.8761 33 25.0729 31.2616 28.1673 28.1673C31.2616 25.0729 33 20.8761 33 16.5C33 12.1239 31.2616 7.92709 28.1673 4.83274C25.0729 1.73839 20.8761 0 16.5 0C12.1239 0 7.92709 1.73839 4.83274 4.83274C1.73839 7.92709 0 12.1239 0 16.5C0 20.8761 1.73839 25.0729 4.83274 28.1673C7.92709 31.2616 12.1239 33 16.5 33Z" fill="black"/>
<path d="M14.4375 23.7188C14.4375 23.4452 14.5461 23.1829 14.7395 22.9895C14.9329 22.7961 15.1952 22.6875 15.4688 22.6875H17.5312C17.8048 22.6875 18.0671 22.7961 18.2605 22.9895C18.4539 23.1829 18.5625 23.4452 18.5625 23.7188C18.5625 23.9923 18.4539 24.2546 18.2605 24.448C18.0671 24.6414 17.8048 24.75 17.5312 24.75H15.4688C15.1952 24.75 14.9329 24.6414 14.7395 24.448C14.5461 24.2546 14.4375 23.9923 14.4375 23.7188ZM10.3125 17.5312C10.3125 17.2577 10.4211 16.9954 10.6145 16.802C10.8079 16.6086 11.0702 16.5 11.3438 16.5H21.6562C21.9298 16.5 22.1921 16.6086 22.3855 16.802C22.5789 16.9954 22.6875 17.2577 22.6875 17.5312C22.6875 17.8048 22.5789 18.0671 22.3855 18.2605C22.1921 18.4539 21.9298 18.5625 21.6562 18.5625H11.3438C11.0702 18.5625 10.8079 18.4539 10.6145 18.2605C10.4211 18.0671 10.3125 17.8048 10.3125 17.5312ZM6.1875 11.3438C6.1875 11.0702 6.29615 10.8079 6.48955 10.6145C6.68294 10.4211 6.94525 10.3125 7.21875 10.3125H25.7812C26.0548 10.3125 26.3171 10.4211 26.5105 10.6145C26.7039 10.8079 26.8125 11.0702 26.8125 11.3438C26.8125 11.6173 26.7039 11.8796 26.5105 12.073C26.3171 12.2664 26.0548 12.375 25.7812 12.375H7.21875C6.94525 12.375 6.68294 12.2664 6.48955 12.073C6.29615 11.8796 6.1875 11.6173 6.1875 11.3438Z" fill="black"/>
</g>
<defs>
<clipPath id="clip0_1154_1531">
<rect width="33" height="33" fill="white"/>
</clipPath>
</defs>
</svg>
