<svg width="107" height="108" viewBox="0 0 107 108" fill="none" xmlns="http://www.w3.org/2000/svg">
<g id="Jigna Small">
<path id="Vector 9" d="M74.8906 69.1403V106.192" stroke="black"/>
<path id="Ellipse 199" d="M78.2016 106.613C78.2016 107.311 76.7197 107.034 74.8918 107.034C73.0639 107.034 71.582 107.311 71.582 106.613C71.582 105.916 73.0639 105.35 74.8918 105.35C76.7197 105.35 78.2016 105.916 78.2016 106.613Z" fill="black"/>
<path id="Vector 8" d="M60.4102 68.2985V105.351" stroke="black"/>
<path id="Ellipse 198" d="M63.307 106.192C63.307 106.89 61.8252 106.614 59.9973 106.614C58.1693 106.614 56.6875 106.89 56.6875 106.192C56.6875 105.495 58.1693 104.929 59.9973 104.929C61.8252 104.929 63.307 105.495 63.307 106.192Z" fill="black"/>
<path id="Subtract" fill-rule="evenodd" clip-rule="evenodd" d="M36.8301 12.7306C36.8301 12.1783 37.2778 11.7306 37.8301 11.7306H98.3831C98.9354 11.7306 99.3831 12.1783 99.3831 12.7306V68.9821C99.3831 69.5344 98.9354 69.9821 98.3831 69.9821H72.0992C71.821 69.9821 71.5528 69.8685 71.3743 69.6551C70.9573 69.1564 70.5713 68.5665 70.4537 67.9941C70.4373 67.9144 70.4206 67.8376 70.4044 67.7631C70.2867 67.2221 70.1955 66.8027 70.4504 66.2712C70.7964 65.5497 71.5052 65.4306 72.2215 65.3103C72.3647 65.2862 72.5082 65.2621 72.6491 65.2331C73.0578 65.1491 73.4766 65.1167 73.8812 65.0854C74.9785 65.0005 75.9708 64.9237 76.3708 63.8474C77.0194 62.1025 75.2168 61.1937 73.5563 60.3565C73.476 60.316 73.396 60.2757 73.3166 60.2354C70.1804 58.6451 66.5373 58.4799 63.3278 59.9108C63.279 59.9326 63.2296 59.9546 63.1798 59.9767C61.2908 60.8173 58.7633 61.9421 59.4419 63.8812C59.8228 64.9697 60.7928 65.0005 61.8924 65.0354C62.4736 65.0539 63.091 65.0735 63.6768 65.2511C63.7531 65.2742 63.828 65.2961 63.9013 65.3175C64.5378 65.5037 65.0563 65.6553 65.3717 66.2814C65.6465 66.827 65.5455 67.2642 65.414 67.8338C65.4012 67.8893 65.3881 67.946 65.375 68.0043C65.2025 68.7724 64.5294 69.3862 63.7695 69.8499C63.623 69.9393 63.4535 69.9821 63.2819 69.9821H37.8301C37.2778 69.9821 36.8301 69.5344 36.8301 68.9821V45.2651C36.8301 45.046 36.901 44.8334 37.0429 44.6664C37.4941 44.1355 38.5904 42.9607 39.6252 42.7417C39.7013 42.7256 39.7746 42.7091 39.8457 42.6932L39.8458 42.6932C40.3623 42.5773 40.7627 42.4875 41.2694 42.7417C41.9573 43.0867 42.0696 43.7908 42.1832 44.5025L42.1832 44.5025C42.2058 44.6447 42.2286 44.7873 42.256 44.9273C42.3354 45.3333 42.3655 45.7494 42.3946 46.1512C42.4736 47.2411 42.5449 48.2268 43.5713 48.6261C45.2353 49.2735 46.106 47.4851 46.9081 45.8376C46.947 45.7579 46.9856 45.6785 47.0242 45.5998C48.5479 42.4882 48.7125 38.8704 47.353 35.6803L47.2904 35.5331C46.4918 33.6555 45.4232 31.1432 43.5713 31.8134C42.5319 32.1896 42.5006 33.1529 42.4652 34.2449C42.4464 34.8221 42.4265 35.4352 42.256 36.0166C42.2337 36.0923 42.2127 36.1667 42.1921 36.2394C42.0132 36.8712 41.8676 37.3858 41.2694 37.6978C40.7482 37.9698 40.3312 37.8686 39.7878 37.7369C39.7349 37.7241 39.6808 37.7109 39.6252 37.6978C37.9294 37.2979 37.0277 34.2369 36.8592 33.6076C36.8388 33.5315 36.8301 33.4549 36.8301 33.3761V12.7306Z" fill="#4C78E7"/>
<path id="Vector 2" d="M72.0532 12.8875L59.7237 13.0069C59.7237 13.0069 63.766 11.9536 64.2273 9.82604C64.3798 9.12231 64.5378 8.61955 64.21 7.98077C63.8278 7.23581 63.1797 7.12498 62.3865 6.89115C60.5682 6.35512 58.4766 7.23596 57.8398 5.4588C57.078 3.33284 59.9405 2.09796 61.9704 1.17432C65.3965 -0.384661 69.2999 -0.237768 72.6715 1.43984C74.5208 2.35995 76.6852 3.31841 75.9715 5.28332C75.3967 6.86568 73.6186 6.45158 71.9963 6.79815C71.0914 6.99145 70.0874 6.99748 69.6495 7.92812C69.3437 8.57811 69.5166 9.06912 69.6668 9.77339C69.9881 11.2806 72.0532 12.8875 72.0532 12.8875Z" fill="#4C78E7"/>
<ellipse id="Ellipse 193" cx="58.5722" cy="29.4976" rx="1.83979" ry="5.40907" fill="black"/>
<path id="Ellipse 195" d="M61.4562 22.0908C61.4562 22.6443 60.1749 22.0908 58.5943 22.0908C57.0137 22.0908 55.7324 22.6443 55.7324 22.0908C55.7324 21.5373 57.0137 21.0886 58.5943 21.0886C60.1749 21.0886 61.4562 21.5373 61.4562 22.0908Z" fill="black"/>
<path id="Ellipse 196" d="M75.4355 22.5363C75.3804 23.0871 74.1605 22.4088 72.5878 22.2515C71.0151 22.0942 69.685 22.5175 69.7401 21.9667C69.7952 21.4159 71.1148 21.0969 72.6875 21.2542C74.2603 21.4115 75.4906 21.9855 75.4355 22.5363Z" fill="black"/>
<ellipse id="Ellipse 194" cx="71.5722" cy="29.4976" rx="1.83979" ry="5.40907" fill="black"/>
<path id="Vector 5" d="M90.6059 40.509C90.6059 40.509 103.128 42.6525 105.329 48.5886C106.023 50.46 106.329 52.0883 106.329 54.0886C106.329 67.0886 83.9863 80.0874 83.9863 80.0874" stroke="black"/>
<line id="Line 70" y1="-0.35" x2="2.62127" y2="-0.35" transform="matrix(0.946993 0.321254 -0.311263 0.950324 82.332 79.2453)" stroke="black" stroke-width="0.7"/>
<line id="Line 71" y1="-0.35" x2="2.62058" y2="-0.35" transform="matrix(0.955059 -0.296417 0.287049 0.957916 82.332 80.8639)" stroke="black" stroke-width="0.7"/>
<line id="Line 72" y1="-0.35" x2="2.64375" y2="-0.35" transform="matrix(0.638527 -0.7696 0.758437 0.651747 83.1602 82.1223)" stroke="black" stroke-width="0.7"/>
<path id="Vector 11" d="M69.2003 46.521C62.9037 49.2926 57.5078 47.9084 57.5078 47.9084C57.5078 47.9084 62.9037 54.3797 69.2003 51.6081C73.5625 49.6881 78.1939 40.509 78.1939 40.509C78.1939 40.509 73.5625 44.6009 69.2003 46.521Z" fill="black"/>
<path id="Vector 12" d="M40.7725 47.1789L2.67468 36.6907" stroke="black"/>
<line id="Line 76" y1="-0.3" x2="1.59854" y2="-0.3" transform="matrix(-0.729076 -0.684433 0.674538 -0.73824 3.83789 36.9728)" stroke="black" stroke-width="0.6"/>
<line id="Line 77" y1="-0.3" x2="1.54206" y2="-0.3" transform="matrix(-0.903133 0.42936 -0.442523 -0.896757 2.82617 36.5114)" stroke="black" stroke-width="0.6"/>
<line id="Line 78" y1="-0.35" x2="1.84962" y2="-0.35" transform="matrix(-0.983126 -0.182932 0.144877 -0.98945 2.81836 36.5822)" stroke="black" stroke-width="0.7"/>
</g>
</svg>
