<svg width="119" height="108" viewBox="0 0 119 108" fill="none" xmlns="http://www.w3.org/2000/svg">
<g id="Jigna">
<path id="Vector 9" d="M70.1465 69.6971V107.095" stroke="black"/>
<path id="Ellipse 199" d="M73.4861 107.52C73.4861 108.225 71.9904 107.945 70.1454 107.945C68.3004 107.945 66.8047 108.225 66.8047 107.52C66.8047 106.816 68.3004 106.245 70.1454 106.245C71.9904 106.245 73.4861 106.816 73.4861 107.52Z" fill="black"/>
<path id="Vector 8" d="M55.5293 68.8471V106.246" stroke="black"/>
<path id="Ellipse 198" d="M58.4529 107.096C58.4529 107.8 56.9572 107.521 55.1122 107.521C53.2672 107.521 51.7715 107.8 51.7715 107.096C51.7715 106.392 53.2672 105.821 55.1122 105.821C56.9572 105.821 58.4529 106.392 58.4529 107.096Z" fill="black"/>
<path id="Union" fill-rule="evenodd" clip-rule="evenodd" d="M57.8012 11.7512C58.5624 11.2548 59.2165 10.6143 59.3868 9.8286C59.4005 9.76556 59.4142 9.70411 59.4276 9.64402C59.5653 9.02713 59.6709 8.55362 59.3694 7.96608C59.0234 7.29184 58.4618 7.13224 57.7722 6.93629C57.6927 6.91372 57.6116 6.89066 57.5289 6.86628C56.8942 6.6792 56.2266 6.66311 55.5981 6.64797C54.4091 6.61932 53.3602 6.59405 52.9397 5.42055C52.1905 3.32984 54.914 2.09293 56.9494 1.1685C57.003 1.14413 57.0562 1.11998 57.1089 1.09603C60.567 -0.47752 64.5069 -0.329254 67.91 1.36403C67.9961 1.40689 68.0829 1.44983 68.1701 1.49295C69.972 2.38419 71.9279 3.35168 71.2408 5.24343C70.817 6.41031 69.7448 6.50156 68.5593 6.60246C68.1221 6.63966 67.6696 6.67817 67.2285 6.77241C67.0763 6.80491 66.9214 6.83217 66.7668 6.85937C65.9934 6.99545 65.2281 7.13009 64.8598 7.91295C64.5885 8.4896 64.6905 8.94229 64.822 9.52614C64.8402 9.60654 64.8588 9.68942 64.8772 9.77546C65.0246 10.4672 65.536 11.1798 66.0499 11.7512H93.87C94.4223 11.7512 94.87 12.1989 94.87 12.7512V69.5471C94.87 70.0994 94.4223 70.5471 93.87 70.5471H32.7324C32.1801 70.5471 31.7324 70.0994 31.7324 69.5471V12.7512C31.7324 12.1989 32.1801 11.7512 32.7324 11.7512H57.8012ZM31.7326 42.2977C31.7326 43.2547 33.0716 43.7348 33.9193 43.2908C34.1294 43.1808 34.3429 43.0968 34.5539 43.0521C34.6306 43.0359 34.7045 43.0193 34.7761 43.0032L34.7765 43.0032C35.2978 42.8862 35.702 42.7956 36.2135 43.0521C36.9078 43.4004 37.0211 44.1111 37.1357 44.8294C37.1586 44.973 37.1816 45.1168 37.2092 45.2582C37.2894 45.668 37.3198 46.0879 37.3491 46.4935C37.4288 47.5936 37.5009 48.5885 38.5369 48.9916C40.2164 49.645 41.0953 47.8399 41.9049 46.177C41.944 46.0965 41.983 46.0164 42.022 45.9369C43.5599 42.7963 43.726 39.1447 42.3539 35.9247L42.2907 35.7762C41.4846 33.8811 40.406 31.3452 38.5369 32.0217C37.4877 32.4014 37.4561 33.3737 37.4204 34.4759C37.4014 35.0585 37.3814 35.6774 37.2092 36.2642C37.1868 36.3406 37.1655 36.4157 37.1447 36.4891C36.9642 37.1268 36.8172 37.6462 36.2135 37.9612C35.6874 38.2356 35.2664 38.1335 34.718 38.0006L34.7177 38.0005C34.6644 37.9876 34.6098 37.9744 34.5539 37.9612C33.8293 37.7903 31.7326 38.2751 31.7326 39.0196V42.2977ZM61.6867 70.4955C60.9007 70.4971 60.3713 68.3084 60.5436 67.5416C60.5568 67.4828 60.57 67.4255 60.5829 67.3695C60.7157 66.7946 60.8176 66.3533 60.5402 65.8026C60.2219 65.1706 59.6986 65.0176 59.0561 64.8297C58.9821 64.8081 58.9065 64.786 58.8295 64.7626C58.2383 64.5834 57.6151 64.5636 57.0284 64.545C55.9186 64.5097 54.9395 64.4786 54.555 63.38C53.8701 61.4227 56.4212 60.2875 58.3279 59.439L58.4773 59.3725C61.7167 57.9282 65.3939 58.0949 68.5594 59.7001C68.6387 59.7404 68.7186 59.7807 68.7989 59.8211L68.8013 59.8224C70.4774 60.6673 72.2968 61.5846 71.6422 63.3458C71.2384 64.4322 70.2368 64.5097 69.1293 64.5954C68.7209 64.627 68.2982 64.6597 67.8857 64.7445C67.7434 64.7738 67.5986 64.7981 67.4541 64.8224C66.731 64.9439 66.0157 65.0641 65.6664 65.7923C65.4091 66.3288 65.5012 66.7521 65.62 67.2981C65.6316 67.3514 65.6434 67.4058 65.6552 67.4617C65.6601 67.4846 65.6649 67.5079 65.6697 67.5313C65.726 67.8055 65.8433 68.0836 65.9961 68.3539C66.4619 69.1787 65.9753 70.487 65.0281 70.4889L61.6867 70.4955Z" fill="#FF7023"/>
<ellipse id="Ellipse 193" cx="56.271" cy="29.8322" rx="1.85699" ry="5.45962" fill="black"/>
<path id="Ellipse 195" d="M58.0777 22.0935C58.2356 22.6294 56.8371 22.459 55.3068 22.9098C53.7764 23.3606 52.6938 24.262 52.5359 23.7261C52.378 23.1902 53.4906 22.3903 55.0209 21.9394C56.5512 21.4886 57.9198 21.5576 58.0777 22.0935Z" fill="black"/>
<path id="Ellipse 196" d="M73.7136 23.5065C73.5846 24.0501 72.4553 23.2079 70.9031 22.8394C69.3509 22.471 67.9635 22.7159 68.0925 22.1723C68.2216 21.6287 69.5845 21.4867 71.1367 21.8552C72.689 22.2236 73.8427 22.963 73.7136 23.5065Z" fill="black"/>
<ellipse id="Ellipse 194" cx="70.355" cy="29.8322" rx="1.85699" ry="5.45962" fill="black"/>
<path id="Vector 11" d="M51.6804 42.3835C51.4208 42.1886 51.5157 42.0936 51.5157 42.0936C51.5157 42.0936 51.5717 42.1972 51.6804 42.3835C52.1017 42.6998 53.4565 43.279 57.6655 44.1415C62.0811 45.0465 73.8841 43.5326 73.8841 43.5326C73.8841 43.5326 67.6891 53.0686 62.9765 52.1028C56.92 50.8615 52.5631 43.8962 51.6804 42.3835Z" fill="black"/>
<path id="Vector 13" d="M89.5665 46.9003C89.5665 46.9003 95.2656 57.8096 97.2475 65.3392C99.9803 75.7213 99.374 92.6079 99.374 92.6079" stroke="black"/>
<line id="Line 73" y1="-0.3" x2="1.88627" y2="-0.3" transform="matrix(0.563548 0.826083 0.837871 -0.545868 99.6406 92.0887)" stroke="black" stroke-width="0.6"/>
<line id="Line 75" y1="-0.3" x2="1.88719" y2="-0.3" transform="matrix(-0.58208 0.813131 0.825528 0.564361 99.6406 92.0887)" stroke="black" stroke-width="0.6"/>
<line id="Line 74" y1="-0.35" x2="2.20365" y2="-0.35" transform="matrix(0.00562331 0.999984 0.999986 -0.00537026 99.5527 92.0858)" stroke="black" stroke-width="0.7"/>
<path id="Vector 12" d="M35.7979 50.0195L1.00053 40.4399" stroke="black"/>
</g>
</svg>
